<svg width="139" height="111" viewBox="0 0 139 111" fill="none" xmlns="http://www.w3.org/2000/svg">
<path d="M122.546 38.2189L115.324 16.2321C112.216 6.77467 103.326 0.375 93.2951 0.375H45.7049C35.6738 0.375 26.7836 6.77467 23.6763 16.2292L16.4541 38.216C6.95579 41.0842 0 49.7348 0 60.0909V96.8438C0 104.444 6.23473 110.625 13.9 110.625H18.5333C26.1986 110.625 32.4333 104.444 32.4333 96.8438V92.25H106.567V96.8438C106.567 104.444 112.801 110.625 120.467 110.625H125.1C132.765 110.625 139 104.444 139 96.8438V60.0909C139 49.7348 132.044 41.0842 122.546 38.2189ZM32.4884 19.0773C34.3591 13.3868 39.67 9.5625 45.7049 9.5625H93.2951C99.33 9.5625 104.641 13.3868 106.512 19.0744L112.439 37.1193H26.5606L32.4884 19.0773ZM23.1667 96.8438C23.1667 99.3789 21.0846 101.438 18.5333 101.438H13.9C11.3488 101.438 9.26667 99.3789 9.26667 96.8438V92.25H23.1667V96.8438ZM129.733 96.8438C129.733 99.3789 127.651 101.438 125.1 101.438H120.467C117.915 101.438 115.833 99.3789 115.833 96.8438V92.25H129.733V96.8438ZM129.733 73.8721V83.0596H9.26667V60.0909C9.26667 52.4911 15.5014 46.3096 23.1667 46.3096H115.833C123.499 46.3096 129.733 52.4911 129.733 60.0909V73.8721ZM30.3483 53.2031C22.8308 53.2031 17.375 58.0266 17.375 64.6731C17.375 71.3197 22.8308 76.1432 30.3483 76.1432L33.2847 76.1719C44.6393 76.1719 46.3333 70.401 46.3333 66.9614C46.3333 59.8755 37.3273 53.2031 30.3483 53.2031ZM33.2847 69.2812C32.2683 69.2812 31.2518 69.2525 30.3483 69.2525C26.7343 69.2525 24.325 67.4208 24.325 64.6731C24.325 61.9255 26.7343 60.0938 30.3483 60.0938C33.9623 60.0938 39.3833 64.2166 39.3833 66.9643C39.3833 69.0229 36.334 69.2812 33.2847 69.2812ZM108.652 53.2031C101.673 53.2031 92.6667 59.8755 92.6667 66.9643C92.6667 70.4038 94.3607 76.1748 105.715 76.1748L108.652 76.146C116.169 76.146 121.625 71.3226 121.625 64.676C121.625 58.0266 116.169 53.2031 108.652 53.2031ZM108.652 69.2525C107.748 69.2525 106.732 69.2812 105.715 69.2812C102.666 69.2812 99.6167 69.0229 99.6167 66.9643C99.6167 64.2166 105.038 60.0938 108.652 60.0938C112.266 60.0938 114.675 61.9255 114.675 64.6731C114.675 67.4208 112.266 69.2525 108.652 69.2525Z" fill="#51A601"/>
</svg>
